<svg width="956" height="1049" viewBox="0 0 956 1049" fill="none">
<path d="M692.926 132.335H687.461V181.289L696.001 180.338L701.466 177.645L702.662 168.932L698.734 167.664V135.82L692.926 132.335Z" fill="white" stroke="black" stroke-width="3"/>
<path d="M607.992 24.4043L611.066 21.0771L611.37 20.749L611.817 20.7559L659.648 21.5312V14.8945H662.895V3.01172H665.969V0.00195312H684.706V3.01172H687.952V259.822H691.417V24.083H699.907V259.03H707.252V268.653L710.382 271.847L710.668 272.138V351.851L713.985 358.773L714.084 358.979V382.752L719.288 394.119L719.298 394.142L719.307 394.164L730.067 421.097L730.139 421.275V436.103L730.132 436.162L729.106 444.717L729.082 444.919L728.981 445.096L723.473 454.694L722.965 485.172V509.773L747.203 507.618L775.731 497.853L817.602 478.275L850.054 453.375L880.046 418.283L880.264 418.028L880.591 417.956L891.351 415.58L891.746 415.493L892.091 415.705L921.98 434.082L922.008 434.1L922.034 434.118L954.657 457.249L955.078 457.548V471.911L954.826 472.195L917.934 513.703L917.873 513.771L917.801 513.827L884.666 539.651L884.632 539.678L884.596 539.701L847.703 563.624L847.624 563.676L847.536 563.711L798.005 583.832L797.966 583.848L797.926 583.859L775.552 590.831L775.406 590.876H758.662V593.132L762.907 595.847H776.204L776.436 595.98L781.389 598.832L781.89 599.12V604.612L780.938 604.658L765.493 605.404V611.417L771.746 614.317L771.862 614.371L771.962 614.453L776.573 618.255L776.923 618.543L776.937 618.996L778.645 674.604L778.659 675.085L778.292 675.396L770.265 682.209L769.984 682.447H767.543V686.309H770.599L770.898 686.669L776.502 693.397L800.11 699.81L800.157 699.822L800.202 699.839L824.899 709.161L855.574 715.958L855.657 715.977L855.736 716.009L870.083 721.87L870.705 722.125V751.612L870.541 751.862L863.367 762.793L863.279 762.928L863.153 763.027L851.197 772.533L850.904 772.767L850.529 772.749L826.617 771.641L826.449 771.633L826.293 771.57L811.604 765.708L811.574 765.696L811.546 765.683L798.564 759.504L798.562 759.502L779.979 750.57H764.706L750.726 756.82L750.531 756.907H732.7V763.827L741.314 764.256L741.975 764.289L742.203 764.908L748.352 781.543L758.08 806.398L758.086 806.412L758.091 806.426L769.363 837.953L779.953 867.579L779.956 867.587L779.958 867.594L789.68 896.232L803.512 931.396L803.518 931.41L803.522 931.425L816.333 967.229L816.337 967.24L825.73 994.49L825.742 994.524L825.751 994.559L831.9 1017.69L831.92 1017.76L831.928 1017.84L833.295 1030.83L833.383 1031.67L832.568 1031.9L812.072 1037.6L812.019 1037.62L811.964 1037.63L763.97 1045.39L763.94 1045.39L738.663 1048.72L738.598 1048.73H715.048L714.964 1048.72L710.353 1047.92L709.705 1047.81L709.55 1047.17L706.476 1034.5L706.467 1034.46L706.46 1034.42L702.532 1010.18L702.529 1010.17L702.528 1010.16L693.306 941.571L684.597 885.496L684.55 885.188L684.685 884.909L692.498 868.68L694.309 861.809L692.451 840.187L679.495 783.421L675.971 772.275H663.612L663.371 772.128L653.294 765.949L652.955 765.741L652.852 765.356L650.353 756.087L634.294 738.684L634.041 738.408L634.029 738.035L629.76 593.708V485.521H628.622L627.797 488.584L627.598 489.324H614.572L614.408 488.525L613.042 481.871L612.833 480.854L613.857 480.684L622.586 479.238V476.471L613.826 474.729L612.863 474.538L613.037 473.572L614.403 465.968L614.494 465.462L614.958 465.241L620.707 462.503V441.479H617.462V403.777L617.966 403.489L620.187 402.222L620.417 402.09H629.76V399.179H623.439V390.721H623.44L624.294 321.013V262.041H633.346V167.562L633.852 167.273L646.527 160.062L656.743 149.188L665.116 132.258L665.961 62.625L627.448 44.2979L612.293 43.9854L611.971 43.9785L611.713 43.7852L608.126 41.0918L607.727 40.792V24.6914L607.992 24.4043ZM726.781 652.685H733.461L736.991 660.515L737.389 661.398H752.281L752.716 660.983L758.209 655.742L759.593 655.849L761.116 655.967L761.205 654.44L761.464 649.991H762.137V657.59L754.392 663.748L751.935 665.357L734.47 664.895L732.93 664.854V668.221H730.026V676.766H768.621L769.038 676.417L772.454 673.565L772.993 673.115V617.715L771.526 617.683L728.314 616.732L726.781 616.698V652.685ZM643.996 42.6611L646.729 47.0967L646.881 47.3428L647.112 47.5146L650.528 50.0488L650.927 50.3447H656.793L657.225 49.9443L660.982 46.459L661.462 46.0137V33.2783L661.301 32.959L658.739 27.8896L658.322 27.0664H650.878L650.461 27.415L647.045 30.2666L646.965 30.333L646.896 30.4092L644.163 33.4199L643.773 33.8486V42.2988L643.996 42.6611Z" fill="white"/>
<path d="M691.562 43.3008H687.633L687.121 22.23L696.003 22.7052L698.906 25.0817V40.7659L691.562 43.3008Z" fill="white" stroke="black" stroke-width="3"/>
<path d="M180.469 344.207C203.255 345.574 222.396 346.714 237.891 347.625C253.841 348.081 267.057 348.536 277.539 348.992C289.388 349.448 299.414 349.448 307.617 348.992C315.82 348.536 326.986 347.397 341.113 345.574C352.962 344.207 368.685 342.156 388.281 339.422C408.333 336.232 433.171 332.13 462.793 327.117C452.311 337.599 444.108 347.169 438.184 355.828C432.715 364.031 428.385 371.095 425.195 377.02C421.549 384.311 419.043 390.464 417.676 395.477C416.764 400.034 417.676 411.427 420.41 429.656C423.145 447.885 427.018 469.533 432.031 494.598C437.044 519.207 442.513 545.639 448.438 573.895C454.362 601.694 460.286 627.898 466.211 652.508C472.135 676.661 477.376 697.397 481.934 714.715C486.947 731.577 490.592 741.603 492.871 744.793C499.707 754.363 504.036 760.743 505.859 763.934C507.682 766.668 510.872 769.174 515.43 771.453C517.253 772.365 520.215 773.732 524.316 775.555C527.962 777.378 532.747 779.656 538.672 782.391C545.052 785.125 553.027 788.315 562.598 791.961C544.824 792.872 529.557 793.556 516.797 794.012C504.036 794.012 493.555 794.24 485.352 794.695C475.781 795.151 467.578 795.607 460.742 796.062C453.906 796.062 445.703 796.518 436.133 797.43C427.93 798.341 417.22 799.253 404.004 800.164C391.243 801.076 376.204 801.987 358.887 802.898C368.001 796.518 375.293 790.822 380.762 785.809C386.686 780.34 391.243 775.783 394.434 772.137C398.079 767.579 400.586 763.478 401.953 759.832C402.865 755.73 403.548 749.578 404.004 741.375C404.46 734.083 404.46 724.513 404.004 712.664C403.548 700.359 402.409 684.409 400.586 664.812L220.801 683.27C216.243 691.017 212.826 697.853 210.547 703.777C208.268 709.246 206.673 714.031 205.762 718.133C204.395 723.146 203.939 727.247 204.395 730.438C205.306 734.083 206.901 738.413 209.18 743.426C211.458 747.983 214.648 753.452 218.75 759.832C223.307 765.757 229.915 772.82 238.574 781.023C227.181 780.568 215.56 780.34 203.711 780.34C191.862 780.34 180.924 780.568 170.898 781.023C159.049 781.479 147.428 781.935 136.035 782.391C124.642 782.846 111.654 783.53 97.0703 784.441C84.7656 785.353 70.4102 786.492 54.0039 787.859C37.1419 788.771 19.1406 790.138 0 791.961C11.849 786.492 21.875 781.023 30.0781 775.555C38.2812 769.63 45.1172 764.161 50.5859 759.148C56.9661 753.68 62.4349 748.439 66.9922 743.426C70.1823 738.868 76.5625 728.387 86.1328 711.98C95.7031 695.118 106.413 675.294 118.262 652.508C130.566 629.721 143.327 605.34 156.543 579.363C170.215 553.387 182.52 529.005 193.457 506.219C204.395 482.977 213.281 462.924 220.117 446.062C226.953 429.201 230.371 418.263 230.371 413.25C229.46 407.326 227.181 400.717 223.535 393.426C220.345 387.046 215.332 379.754 208.496 371.551C202.116 363.348 192.773 354.233 180.469 344.207ZM392.383 614.227C389.648 598.276 387.142 584.604 384.863 573.211C382.585 561.362 380.762 551.564 379.395 543.816C377.572 534.702 376.204 526.727 375.293 519.891C373.926 513.51 372.331 505.307 370.508 495.281C368.685 486.622 366.406 475.913 363.672 463.152C361.393 449.936 358.431 434.214 354.785 415.984C328.809 467.938 308.529 508.27 293.945 536.98C279.818 565.236 269.564 585.971 263.184 599.188C255.436 614.682 251.107 623.797 250.195 626.531L392.383 614.227Z" fill="white"/>
</svg>
